#!OML:ASF E:/inclinewalkrobotboard/Project1/Captureday1/Session1/subject1.ASF
:FULLY-SPECIFIED
:DEGREES
76
root 0 0 0 6.165684472753373 3.511613384561393 9.801262892536448
lowerback -9.772015421092702 -4.982568677805737 -8.30122700501007
upperback -10.47661730197649 -6.371196153122544 6.090433239779498
thorax -5.633304654948814 -1.9554156537771614 11.312475887656142
lowerneck -5.926572428639744 -7.856839712521186 -6.78196650238503
upperneck 30.74526909043776 -10.673870562426105 3.843496957255056
head 11.479438446982119 -5.240680926804956 1.0272953052885159
rclavicle -9.584989233060725E-15 3.98395002470893E-15
rhumerus 147.99982587087254 5.8981489164422065 -187.93117407135233
rradius 15.286831541763524
rwrist 86.08305842541019
rhand -16.82277614092232 8.952927174153047
rfingers 7.125020000000005
rthumb 9.38512280541522 -20.83760944620773
lclavicle -1.0352420494168271E-15 -3.578773845665864E-15
lhumerus 73.81298626916497 31.7113064126935 17.75475366337808
lradius 50.331510666953456
lwrist -18.968809774296506
lhand -10.972890651269399 11.279948078997418
lfingers 7.125019999999994
lthumb 15.00822939093077 40.493216084292854
rfemur 159.74289631531238 -205.18966491043597 -176.2416031854667
rtibia 27.015656861422222
rfoot -67.71706568680115 -34.39765651873305
rtoes 53.06980636074469
lfemur -89.20171559576673 17.069189848911382 -60.86977663526774
ltibia 67.09793751933691
lfoot -8.1938761241706 38.249519736141266
ltoes 5.08119318308609
77
root 0 0 0 4.279158015660489 8.260545191682365 10.215075423703672
lowerback -8.594546455606432 -5.0467865166566614 -8.136470993439115
upperback -9.907317371580115 -6.412103731699615 6.164389189985311
thorax -5.6485808601782495 -1.978904246257877 11.268382643224719
lowerneck -5.7710181514059125 -8.060489384073486 -6.8246904503377905
upperneck 30.821378514788485 -10.753573791673363 3.145465145980711
head 11.476432401155687 -5.34717129307743 0.7904988080974464
rclavicle -9.56998422816802E-15 4.266867892510184E-15
rhumerus 149.32699857797124 6.356918992061704 -189.04878048558905
rradius 15.148437664442897
rwrist 87.08617521513966
rhand -16.889769536430506 8.914124809554899
rfingers 7.125020000000005
rthumb 9.314467691612649 -20.883800990228522
lclavicle -2.3472455686857864E-16 -2.7812775739472345E-15
lhumerus 73.82724300173827 31.929383828155395 18.10879260459315
lradius 49.32394869378599
lwrist -19.36179510077052
lhand -11.875869880058486 11.280767093122057
lfingers 7.125019999999993
lthumb 14.139850745376757 40.6235542619212
rfemur 156.0765161302183 -203.51186540100377 -175.20448069977746
rtibia 29.882227819176585
rfoot -69.62689437643522 -32.90903364307289
rtoes 55.009142282383095
lfemur -89.15664583340393 17.274967001545214 -61.18771336835816
ltibia 67.6292455316653
lfoot -5.3877630098086975 37.732963953233906
ltoes 4.0818320491502575
78
root 0 0 0 35.0247132538919 -20.497360539708385 -3.6699607034016086
lowerback -15.012014652373473 -0.5697150296267794 -6.8440675714401635
upperback -16.733189174305846 -0.6869668165445324 2.953031399848446
thorax -9.6909696334018 0.6412266845564281 7.305379030714535
lowerneck -4.434996191603291 0.7572057511283978 0.15655692638079896
upperneck 28.51891010317426 -0.32228039546354154 5.8563396334755655
head 10.391499915714409 0.25001135168393473 1.605360391226418
rclavicle 5.094387929689696E-16 -5.1210536597868285E-15
rhumerus 43.79738630984647 -24.14331353633099 -54.88438546467469
rradius 23.865129063810137
rwrist 52.58160297609572
rhand 0.153448590874393 4.720186238114537
rfingers 7.125019999999997
rthumb 25.684629938426266 -22.614629115563076
lclavicle 6.074715431527924E-15 -2.3412309258122895E-15
lhumerus 6.627759894618848 15.603967104905006 10.878332187756051
lradius 32.17254817057719
lwrist -31.426767832063334
lhand 14.442136767114786 21.82756972716709
lfingers 7.125019999999981
lthumb 39.386733529373956 47.50504912010561
rfemur 127.94713459383371 -177.4693043386908 -153.56435916652566
rtibia 34.741320501315066
rfoot -71.02073633210773 -22.951947097241774
rtoes 56.09962852728347
lfemur -94.19954820676935 22.386218002666403 -54.38674014334424
ltibia 67.21650942373383
lfoot 4.320894324444165 35.720781960914515
ltoes 6.213272694869422
79
root 0 0 0 8.572269918552472 3.458629652573382 9.372511552400281
lowerback -10.115609990725574 -4.530097138596918 -8.622274401787227
upperback -11.021212435718034 -5.779998394910389 5.683619184131869
thorax -6.039816444937302 -1.623568088415279 11.05099652387772
lowerneck -5.478732640383394 -7.229179216548031 -6.040670325692217
upperneck 31.181093038331802 -9.891504639023514 3.531071559268688
head 11.516874632495595 -4.8416351427624065 0.9018561066963322
rclavicle -3.663590863949513E-15 3.940068320688266E-15
rhumerus 136.45908970022697 -0.9409403187706715 -164.04711866423474
rradius 15.012454872093615
rwrist 90.02755889300266
rhand -14.636816464009637 7.865351594060793
rfingers 7.12502
rthumb 11.502200980213464 -21.69028755285532
lclavicle 3.24929803511386E-15 -1.3693350739573714E-15
lhumerus 61.141509489552874 32.02085772577139 15.375661524410678
lradius 39.57390860744174
lwrist -24.208158836717104
lhand -8.081033036194743 15.421555021258243
lfingers 7.125020000000001
lthumb 17.76266795170705 44.42100522699157
rfemur 142.8395946512353 -196.95050975981985 -170.78999316818138
rtibia 40.58621403807492
rfoot -75.51129665061947 -26.41646539079196
rtoes 59.28386858964113
lfemur -91.29608813217399 19.35269210502561 -59.24488396621174
ltibia 68.25104834476048
lfoot 2.0030668302904537 36.28562432104171
ltoes 4.310872733643949
80
root 0 0 0 4.352975990157688 12.690493268314885 9.921926583674365
lowerback -8.133739036660815 -4.966381391953119 -8.005099550611439
upperback -9.870686777456378 -6.279129053806079 6.258039364072356
thorax -5.810131805278722 -1.920482990014669 11.277121329064048
lowerneck -5.332129394513968 -8.095949657765015 -6.7367570444836895
upperneck 31.11622632511378 -10.668014075424153 2.5405175418044434
head 11.4989835705181 -5.352448688628198 0.5822586316611691
rclavicle -7.840982832803799E-15 3.9535693261914815E-15
rhumerus 139.64760479531907 2.8964264848356898 -172.0305441468833
rradius 16.02354104503136
rwrist 90.58531543729238
rhand -16.31091147573481 9.229355396713625
rfingers 7.125019999999996
rthumb 9.883408573928834 -20.486648438376115
lclavicle 1.0285337918902175E-15 -1.5667128633423161E-15
lhumerus 69.20447200318814 32.95822224130494 14.00794509729456
lradius 40.67650737445253
lwrist -23.747006731705056
lhand -11.296141321928307 15.200855264347743
lfingers 7.125019999999983
lthumb 14.695366773530623 44.61768189401
rfemur 145.2620788328448 -201.07937494206828 -175.16710246814813
rtibia 46.19208404046319
rfoot -76.57219585719858 -23.2643988915183
rtoes 60.35943188507834
lfemur -88.93697516192202 17.870326632258013 -61.76274914147698
ltibia 68.59543940321682
lfoot 1.4944758417256345 36.3763773551494
ltoes 2.3603941358002256
81
root 0 0 0 1.6209487667587439 18.185716414543695 10.505070196946141
lowerback -6.6018769110942905 -5.124088136650212 -7.750155622354044
upperback -9.112290063920279 -6.442734374152055 6.409461494741992
thorax -5.820850592801517 -2.014118227560881 11.262708367219753
lowerneck -5.246148909193014 -8.434569262727788 -6.936948580504111
upperneck 30.918184121817127 -10.883686539559259 1.8613897494533915
head 11.41183082282624 -5.5354455981273425 0.35274673110145194
rclavicle -9.882679256529761E-15 5.401903998897983E-15
rhumerus 141.9248731414162 5.500591375487804 -178.5242858883548
rradius 16.585664977542443
rwrist 88.82971653027454
rhand -16.755955244211858 9.688911378079222
rfingers 7.125019999999996
rthumb 9.45710580539279 -20.031287105755737
lclavicle 5.707974075899206E-16 -4.789243415504924E-16
lhumerus 71.6901268241821 32.72859773345404 14.240409438269978
lradius 41.029622823190316
lwrist -23.33669596796514
lhand -13.09700034106057 14.97457479472654
lfingers 7.125019999999979
lthumb 12.968571349235253 44.59622769315439
rfemur 146.70085394460983 -203.74685936608446 -177.17169293843412
rtibia 51.17737727986049
rfoot -76.4414014364606 -20.870459403395472
rtoes 59.734797318592314
lfemur -88.19960194184566 17.485838712007467 -62.67556955230956
ltibia 68.64478762615303
lfoot 2.415758266239102 36.42862580185296
ltoes 1.8133258363598177
